<svg width="287" height="194" viewBox="0 0 287 194" fill="none" xmlns="http://www.w3.org/2000/svg">
<g clip-path="url(#clip0_432_1098)">
<rect width="287" height="194" rx="10" fill="#1D1D1B"/>
<rect y="138" width="311" height="56" fill="#4A4A4A" fill-opacity="0.25"/>
<path opacity="0.8" d="M16.84 171V162.36H22.24V163.206H17.722V166.194H21.52V167.04H17.722V170.154H22.24V171H16.84ZM23.4438 171L25.9758 167.724L23.4978 164.52H24.5538L26.4918 167.046L28.4118 164.52H29.4678L26.9898 167.724L29.5278 171H28.4658L26.4918 168.402L24.5058 171H23.4438ZM33.8819 171.18C33.2859 171.18 32.7819 171.03 32.3699 170.73C31.9579 170.426 31.6459 170.016 31.4339 169.5C31.2219 168.98 31.1159 168.398 31.1159 167.754C31.1159 167.098 31.2219 166.514 31.4339 166.002C31.6499 165.486 31.9659 165.08 32.3819 164.784C32.7979 164.488 33.3099 164.34 33.9179 164.34C34.5099 164.34 35.0179 164.49 35.4419 164.79C35.8659 165.09 36.1899 165.498 36.4139 166.014C36.6419 166.53 36.7559 167.11 36.7559 167.754C36.7559 168.402 36.6419 168.984 36.4139 169.5C36.1859 170.016 35.8579 170.426 35.4299 170.73C35.0019 171.03 34.4859 171.18 33.8819 171.18ZM30.9659 173.88V164.52H31.7579V169.398H31.8539V173.88H30.9659ZM33.7919 170.358C34.2439 170.358 34.6199 170.244 34.9199 170.016C35.2199 169.788 35.4439 169.478 35.5919 169.086C35.7439 168.69 35.8199 168.246 35.8199 167.754C35.8199 167.266 35.7459 166.826 35.5979 166.434C35.4499 166.042 35.2239 165.732 34.9199 165.504C34.6199 165.276 34.2379 165.162 33.7739 165.162C33.3219 165.162 32.9459 165.272 32.6459 165.492C32.3499 165.712 32.1279 166.018 31.9799 166.41C31.8319 166.798 31.7579 167.246 31.7579 167.754C31.7579 168.254 31.8319 168.702 31.9799 169.098C32.1279 169.49 32.3519 169.798 32.6519 170.022C32.9519 170.246 33.3319 170.358 33.7919 170.358Z" fill="white"/>
<path d="M46.044 171.18C45.404 171.18 44.844 171.046 44.364 170.778C43.884 170.51 43.51 170.136 43.242 169.656C42.974 169.176 42.84 168.616 42.84 167.976V165.384C42.84 164.744 42.974 164.184 43.242 163.704C43.51 163.224 43.884 162.85 44.364 162.582C44.844 162.314 45.404 162.18 46.044 162.18C46.684 162.18 47.244 162.314 47.724 162.582C48.204 162.85 48.578 163.224 48.846 163.704C49.114 164.184 49.248 164.744 49.248 165.384V167.976C49.248 168.616 49.114 169.176 48.846 169.656C48.578 170.136 48.204 170.51 47.724 170.778C47.244 171.046 46.684 171.18 46.044 171.18ZM46.044 169.632C46.332 169.632 46.592 169.564 46.824 169.428C47.056 169.292 47.24 169.108 47.376 168.876C47.512 168.644 47.58 168.384 47.58 168.096V165.252C47.58 164.964 47.512 164.704 47.376 164.472C47.24 164.24 47.056 164.056 46.824 163.92C46.592 163.784 46.332 163.716 46.044 163.716C45.756 163.716 45.496 163.784 45.264 163.92C45.032 164.056 44.848 164.24 44.712 164.472C44.576 164.704 44.508 164.964 44.508 165.252V168.096C44.508 168.384 44.576 168.644 44.712 168.876C44.848 169.108 45.032 169.292 45.264 169.428C45.496 169.564 45.756 169.632 46.044 169.632ZM54.1779 162.192C54.7499 162.192 55.2619 162.326 55.7139 162.594C56.1699 162.862 56.5299 163.236 56.7939 163.716C57.0579 164.192 57.1899 164.744 57.1899 165.372V167.88C57.1899 168.56 57.0579 169.148 56.7939 169.644C56.5299 170.136 56.1579 170.516 55.6779 170.784C55.1979 171.048 54.6339 171.18 53.9859 171.18C53.5659 171.18 53.1659 171.118 52.7859 170.994C52.4099 170.866 52.0619 170.656 51.7419 170.364L52.9059 169.2C53.0499 169.344 53.2159 169.456 53.4039 169.536C53.5959 169.616 53.7899 169.656 53.9859 169.656C54.2979 169.656 54.5679 169.584 54.7959 169.44C55.0279 169.292 55.2059 169.102 55.3299 168.87C55.4579 168.634 55.5219 168.384 55.5219 168.12V166.836L55.7979 167.136C55.5539 167.388 55.2679 167.582 54.9399 167.718C54.6119 167.85 54.2739 167.916 53.9259 167.916C53.3819 167.916 52.9019 167.794 52.4859 167.55C52.0739 167.306 51.7499 166.972 51.5139 166.548C51.2819 166.124 51.1659 165.64 51.1659 165.096C51.1659 164.552 51.3039 164.062 51.5799 163.626C51.8559 163.186 52.2219 162.838 52.6779 162.582C53.1339 162.322 53.6339 162.192 54.1779 162.192ZM54.1779 163.752C53.9299 163.752 53.7019 163.812 53.4939 163.932C53.2899 164.052 53.1259 164.214 53.0019 164.418C52.8819 164.622 52.8219 164.848 52.8219 165.096C52.8219 165.344 52.8819 165.572 53.0019 165.78C53.1219 165.984 53.2839 166.148 53.4879 166.272C53.6919 166.392 53.9179 166.452 54.1659 166.452C54.4139 166.452 54.6399 166.392 54.8439 166.272C55.0519 166.148 55.2159 165.984 55.3359 165.78C55.4599 165.572 55.5219 165.344 55.5219 165.096C55.5219 164.856 55.4619 164.634 55.3419 164.43C55.2219 164.226 55.0599 164.062 54.8559 163.938C54.6519 163.814 54.4259 163.752 54.1779 163.752ZM61.5348 162.36H63.1668L60.8628 171H59.2308L61.5348 162.36ZM64.9697 170.988V169.572L68.5937 166.356C68.8657 166.116 69.0577 165.89 69.1697 165.678C69.2817 165.466 69.3377 165.268 69.3377 165.084C69.3377 164.82 69.2837 164.586 69.1757 164.382C69.0677 164.174 68.9157 164.012 68.7197 163.896C68.5237 163.776 68.2937 163.716 68.0297 163.716C67.7537 163.716 67.5097 163.78 67.2977 163.908C67.0897 164.032 66.9277 164.198 66.8117 164.406C66.6957 164.61 66.6417 164.832 66.6497 165.072H64.9697C64.9697 164.48 65.0997 163.968 65.3597 163.536C65.6197 163.104 65.9817 162.77 66.4457 162.534C66.9097 162.298 67.4497 162.18 68.0657 162.18C68.6297 162.18 69.1337 162.304 69.5777 162.552C70.0257 162.796 70.3777 163.138 70.6337 163.578C70.8897 164.018 71.0177 164.528 71.0177 165.108C71.0177 165.536 70.9577 165.892 70.8377 166.176C70.7177 166.456 70.5397 166.716 70.3037 166.956C70.0677 167.192 69.7777 167.46 69.4337 167.76L67.0937 169.812L66.9617 169.452H71.0177V170.988H64.9697ZM76.2135 171V169.656H72.4575V168.132L75.1815 162.36H77.0535L74.3295 168.132H76.2135V165.972H77.8695V168.132H78.6375V169.656H77.8695V171H76.2135Z" fill="white"/>
<path d="M18.934 81.61L17.188 80.35L18.52 78.838L16.54 78.334L17.206 76.282L19.078 77.092L18.916 75.04H21.076L20.914 77.092L22.786 76.282L23.452 78.334L21.472 78.838L22.804 80.35L21.058 81.61L19.996 79.9L18.934 81.61ZM29.0794 81.61L27.3334 80.35L28.6654 78.838L26.6854 78.334L27.3514 76.282L29.2234 77.092L29.0614 75.04H31.2214L31.0594 77.092L32.9314 76.282L33.5974 78.334L31.6174 78.838L32.9494 80.35L31.2034 81.61L30.1414 79.9L29.0794 81.61ZM39.2248 81.61L37.4788 80.35L38.8108 78.838L36.8308 78.334L37.4968 76.282L39.3688 77.092L39.2068 75.04H41.3668L41.2048 77.092L43.0768 76.282L43.7428 78.334L41.7628 78.838L43.0948 80.35L41.3488 81.61L40.2868 79.9L39.2248 81.61ZM49.3702 81.61L47.6242 80.35L48.9562 78.838L46.9762 78.334L47.6422 76.282L49.5142 77.092L49.3522 75.04H51.5122L51.3502 77.092L53.2222 76.282L53.8882 78.334L51.9082 78.838L53.2402 80.35L51.4942 81.61L50.4322 79.9L49.3702 81.61ZM69.9626 81.61L68.2166 80.35L69.5486 78.838L67.5686 78.334L68.2346 76.282L70.1066 77.092L69.9446 75.04H72.1046L71.9426 77.092L73.8146 76.282L74.4806 78.334L72.5006 78.838L73.8326 80.35L72.0866 81.61L71.0246 79.9L69.9626 81.61ZM80.108 81.61L78.362 80.35L79.694 78.838L77.714 78.334L78.38 76.282L80.252 77.092L80.09 75.04H82.25L82.088 77.092L83.96 76.282L84.626 78.334L82.646 78.838L83.978 80.35L82.232 81.61L81.17 79.9L80.108 81.61ZM90.2534 81.61L88.5074 80.35L89.8394 78.838L87.8594 78.334L88.5254 76.282L90.3974 77.092L90.2354 75.04H92.3954L92.2334 77.092L94.1054 76.282L94.7714 78.334L92.7914 78.838L94.1234 80.35L92.3774 81.61L91.3154 79.9L90.2534 81.61ZM100.399 81.61L98.6528 80.35L99.9848 78.838L98.0048 78.334L98.6708 76.282L100.543 77.092L100.381 75.04H102.541L102.379 77.092L104.251 76.282L104.917 78.334L102.937 78.838L104.269 80.35L102.523 81.61L101.461 79.9L100.399 81.61ZM120.991 81.61L119.245 80.35L120.577 78.838L118.597 78.334L119.263 76.282L121.135 77.092L120.973 75.04H123.133L122.971 77.092L124.843 76.282L125.509 78.334L123.529 78.838L124.861 80.35L123.115 81.61L122.053 79.9L120.991 81.61ZM131.137 81.61L129.391 80.35L130.723 78.838L128.743 78.334L129.409 76.282L131.281 77.092L131.119 75.04H133.279L133.117 77.092L134.989 76.282L135.655 78.334L133.675 78.838L135.007 80.35L133.261 81.61L132.199 79.9L131.137 81.61ZM141.282 81.61L139.536 80.35L140.868 78.838L138.888 78.334L139.554 76.282L141.426 77.092L141.264 75.04H143.424L143.262 77.092L145.134 76.282L145.8 78.334L143.82 78.838L145.152 80.35L143.406 81.61L142.344 79.9L141.282 81.61ZM151.427 81.61L149.681 80.35L151.013 78.838L149.033 78.334L149.699 76.282L151.571 77.092L151.409 75.04H153.569L153.407 77.092L155.279 76.282L155.945 78.334L153.965 78.838L155.297 80.35L153.551 81.61L152.489 79.9L151.427 81.61ZM174.198 88.27C173.544 88.27 172.929 88.135 172.353 87.865C171.783 87.595 171.291 87.22 170.877 86.74C170.463 86.26 170.166 85.702 169.986 85.066L172.344 84.436C172.422 84.742 172.56 85.006 172.758 85.228C172.962 85.45 173.196 85.624 173.46 85.75C173.73 85.87 174.006 85.93 174.288 85.93C174.66 85.93 174.999 85.84 175.305 85.66C175.617 85.48 175.863 85.237 176.043 84.931C176.229 84.625 176.322 84.286 176.322 83.914C176.322 83.542 176.229 83.203 176.043 82.897C175.863 82.591 175.617 82.348 175.305 82.168C174.999 81.988 174.66 81.898 174.288 81.898C173.832 81.898 173.46 81.976 173.172 82.132C172.884 82.282 172.668 82.426 172.524 82.564L170.454 81.934L170.85 75.04H177.924V77.326H172.2L173.064 76.516L172.794 80.962L172.38 80.458C172.704 80.194 173.073 80.002 173.487 79.882C173.901 79.762 174.288 79.702 174.648 79.702C175.464 79.702 176.181 79.885 176.799 80.251C177.423 80.611 177.909 81.109 178.257 81.745C178.611 82.375 178.788 83.098 178.788 83.914C178.788 84.73 178.575 85.468 178.149 86.128C177.723 86.782 177.162 87.304 176.466 87.694C175.77 88.078 175.014 88.27 174.198 88.27ZM187.371 88.27C186.411 88.27 185.571 88.069 184.851 87.667C184.131 87.265 183.57 86.704 183.168 85.984C182.766 85.264 182.565 84.424 182.565 83.464V79.576C182.565 78.616 182.766 77.776 183.168 77.056C183.57 76.336 184.131 75.775 184.851 75.373C185.571 74.971 186.411 74.77 187.371 74.77C188.331 74.77 189.171 74.971 189.891 75.373C190.611 75.775 191.172 76.336 191.574 77.056C191.976 77.776 192.177 78.616 192.177 79.576V83.464C192.177 84.424 191.976 85.264 191.574 85.984C191.172 86.704 190.611 87.265 189.891 87.667C189.171 88.069 188.331 88.27 187.371 88.27ZM187.371 85.948C187.803 85.948 188.193 85.846 188.541 85.642C188.889 85.438 189.165 85.162 189.369 84.814C189.573 84.466 189.675 84.076 189.675 83.644V79.378C189.675 78.946 189.573 78.556 189.369 78.208C189.165 77.86 188.889 77.584 188.541 77.38C188.193 77.176 187.803 77.074 187.371 77.074C186.939 77.074 186.549 77.176 186.201 77.38C185.853 77.584 185.577 77.86 185.373 78.208C185.169 78.556 185.067 78.946 185.067 79.378V83.644C185.067 84.076 185.169 84.466 185.373 84.814C185.577 85.162 185.853 85.438 186.201 85.642C186.549 85.846 186.939 85.948 187.371 85.948ZM196.962 88L201.318 77.344H195.774V75.04H203.946V77.344L199.608 88H196.962ZM212.531 88.27C211.571 88.27 210.731 88.069 210.011 87.667C209.291 87.265 208.73 86.704 208.328 85.984C207.926 85.264 207.725 84.424 207.725 83.464V79.576C207.725 78.616 207.926 77.776 208.328 77.056C208.73 76.336 209.291 75.775 210.011 75.373C210.731 74.971 211.571 74.77 212.531 74.77C213.491 74.77 214.331 74.971 215.051 75.373C215.771 75.775 216.332 76.336 216.734 77.056C217.136 77.776 217.337 78.616 217.337 79.576V83.464C217.337 84.424 217.136 85.264 216.734 85.984C216.332 86.704 215.771 87.265 215.051 87.667C214.331 88.069 213.491 88.27 212.531 88.27ZM212.531 85.948C212.963 85.948 213.353 85.846 213.701 85.642C214.049 85.438 214.325 85.162 214.529 84.814C214.733 84.466 214.835 84.076 214.835 83.644V79.378C214.835 78.946 214.733 78.556 214.529 78.208C214.325 77.86 214.049 77.584 213.701 77.38C213.353 77.176 212.963 77.074 212.531 77.074C212.099 77.074 211.709 77.176 211.361 77.38C211.013 77.584 210.737 77.86 210.533 78.208C210.329 78.556 210.227 78.946 210.227 79.378V83.644C210.227 84.076 210.329 84.466 210.533 84.814C210.737 85.162 211.013 85.438 211.361 85.642C211.709 85.846 212.099 85.948 212.531 85.948Z" fill="white"/>
<path d="M16.96 112V103.36H18.028V112H16.96ZM23.9263 112C23.5423 112.076 23.1623 112.106 22.7863 112.09C22.4143 112.078 22.0823 112.004 21.7903 111.868C21.4983 111.728 21.2763 111.512 21.1243 111.22C20.9963 110.964 20.9263 110.706 20.9143 110.446C20.9063 110.182 20.9023 109.884 20.9023 109.552V103.72H21.9703V109.504C21.9703 109.768 21.9723 109.994 21.9763 110.182C21.9843 110.37 22.0263 110.532 22.1023 110.668C22.2463 110.924 22.4743 111.074 22.7863 111.118C23.1023 111.162 23.4823 111.15 23.9263 111.082V112ZM19.5883 106.402V105.52H23.9263V106.402H19.5883ZM27.5639 112.18C27.0799 112.18 26.6739 112.092 26.3459 111.916C26.0219 111.736 25.7759 111.5 25.6079 111.208C25.4439 110.916 25.3619 110.596 25.3619 110.248C25.3619 109.908 25.4259 109.614 25.5539 109.366C25.6859 109.114 25.8699 108.906 26.1059 108.742C26.3419 108.574 26.6239 108.442 26.9519 108.346C27.2599 108.262 27.6039 108.19 27.9839 108.13C28.3679 108.066 28.7559 108.008 29.1479 107.956C29.5399 107.904 29.9059 107.854 30.2459 107.806L29.8619 108.028C29.8739 107.452 29.7579 107.026 29.5139 106.75C29.2739 106.474 28.8579 106.336 28.2659 106.336C27.8739 106.336 27.5299 106.426 27.2339 106.606C26.9419 106.782 26.7359 107.07 26.6159 107.47L25.6019 107.164C25.7579 106.596 26.0599 106.15 26.5079 105.826C26.9559 105.502 27.5459 105.34 28.2779 105.34C28.8659 105.34 29.3699 105.446 29.7899 105.658C30.2139 105.866 30.5179 106.182 30.7019 106.606C30.7939 106.806 30.8519 107.024 30.8759 107.26C30.8999 107.492 30.9119 107.736 30.9119 107.992V112H29.9639V110.446L30.1859 110.59C29.9419 111.114 29.5999 111.51 29.1599 111.778C28.7239 112.046 28.1919 112.18 27.5639 112.18ZM27.7259 111.286C28.1099 111.286 28.4419 111.218 28.7219 111.082C29.0059 110.942 29.2339 110.76 29.4059 110.536C29.5779 110.308 29.6899 110.06 29.7419 109.792C29.8019 109.592 29.8339 109.37 29.8379 109.126C29.8459 108.878 29.8499 108.688 29.8499 108.556L30.2219 108.718C29.8739 108.766 29.5319 108.812 29.1959 108.856C28.8599 108.9 28.5419 108.948 28.2419 109C27.9419 109.048 27.6719 109.106 27.4319 109.174C27.2559 109.23 27.0899 109.302 26.9339 109.39C26.7819 109.478 26.6579 109.592 26.5619 109.732C26.4699 109.868 26.4239 110.038 26.4239 110.242C26.4239 110.418 26.4679 110.586 26.5559 110.746C26.6479 110.906 26.7879 111.036 26.9759 111.136C27.1679 111.236 27.4179 111.286 27.7259 111.286ZM36.0719 104.53H35.2019L35.9879 102.55H36.8579L36.0719 104.53ZM35.4119 112.168C34.9959 112.168 34.6379 112.102 34.3379 111.97C34.0419 111.838 33.7959 111.662 33.5999 111.442C33.4039 111.222 33.2499 110.978 33.1379 110.71C33.0259 110.442 32.9459 110.168 32.8979 109.888C32.8539 109.608 32.8319 109.346 32.8319 109.102V105.52H33.9119V108.766C33.9119 109.07 33.9399 109.364 33.9959 109.648C34.0519 109.932 34.1459 110.188 34.2779 110.416C34.4139 110.644 34.5939 110.824 34.8179 110.956C35.0459 111.088 35.3299 111.154 35.6699 111.154C35.9379 111.154 36.1819 111.108 36.4019 111.016C36.6219 110.924 36.8099 110.788 36.9659 110.608C37.1219 110.424 37.2419 110.192 37.3259 109.912C37.4099 109.632 37.4519 109.306 37.4519 108.934L38.1539 109.15C38.1539 109.774 38.0399 110.312 37.8119 110.764C37.5879 111.216 37.2699 111.564 36.8579 111.808C36.4499 112.048 35.9679 112.168 35.4119 112.168ZM37.5719 112V110.266H37.4519V105.52H38.5259V112H37.5719ZM43.5681 112V103.36H46.9341C47.4501 103.36 47.8901 103.466 48.2541 103.678C48.6221 103.89 48.9021 104.17 49.0941 104.518C49.2901 104.862 49.3881 105.234 49.3881 105.634C49.3881 106.102 49.2681 106.512 49.0281 106.864C48.7881 107.216 48.4641 107.458 48.0561 107.59L48.0441 107.296C48.6001 107.444 49.0321 107.716 49.3401 108.112C49.6481 108.508 49.8021 108.98 49.8021 109.528C49.8021 110.032 49.6981 110.468 49.4901 110.836C49.2861 111.204 48.9901 111.49 48.6021 111.694C48.2181 111.898 47.7621 112 47.2341 112H43.5681ZM44.6481 110.98H47.0301C47.3501 110.98 47.6361 110.922 47.8881 110.806C48.1401 110.686 48.3381 110.518 48.4821 110.302C48.6301 110.086 48.7041 109.826 48.7041 109.522C48.7041 109.23 48.6381 108.968 48.5061 108.736C48.3781 108.504 48.1961 108.32 47.9601 108.184C47.7281 108.044 47.4581 107.974 47.1501 107.974H44.6481V110.98ZM44.6481 106.966H46.9221C47.1781 106.966 47.4081 106.912 47.6121 106.804C47.8201 106.692 47.9841 106.536 48.1041 106.336C48.2281 106.136 48.2901 105.902 48.2901 105.634C48.2901 105.262 48.1641 104.958 47.9121 104.722C47.6601 104.486 47.3301 104.368 46.9221 104.368H44.6481V106.966ZM51.5978 112V103.18H52.6658V112H51.5978ZM56.7881 112.18C56.3041 112.18 55.8981 112.092 55.5701 111.916C55.2461 111.736 55.0001 111.5 54.8321 111.208C54.6681 110.916 54.5861 110.596 54.5861 110.248C54.5861 109.908 54.6501 109.614 54.7781 109.366C54.9101 109.114 55.0941 108.906 55.3301 108.742C55.5661 108.574 55.8481 108.442 56.1761 108.346C56.4841 108.262 56.8281 108.19 57.2081 108.13C57.5921 108.066 57.9801 108.008 58.3721 107.956C58.7641 107.904 59.1301 107.854 59.4701 107.806L59.0861 108.028C59.0981 107.452 58.9821 107.026 58.7381 106.75C58.4981 106.474 58.0821 106.336 57.4901 106.336C57.0981 106.336 56.7541 106.426 56.4581 106.606C56.1661 106.782 55.9601 107.07 55.8401 107.47L54.8261 107.164C54.9821 106.596 55.2841 106.15 55.7321 105.826C56.1801 105.502 56.7701 105.34 57.5021 105.34C58.0901 105.34 58.5941 105.446 59.0141 105.658C59.4381 105.866 59.7421 106.182 59.9261 106.606C60.0181 106.806 60.0761 107.024 60.1001 107.26C60.1241 107.492 60.1361 107.736 60.1361 107.992V112H59.1881V110.446L59.4101 110.59C59.1661 111.114 58.8241 111.51 58.3841 111.778C57.9481 112.046 57.4161 112.18 56.7881 112.18ZM56.9501 111.286C57.3341 111.286 57.6661 111.218 57.9461 111.082C58.2301 110.942 58.4581 110.76 58.6301 110.536C58.8021 110.308 58.9141 110.06 58.9661 109.792C59.0261 109.592 59.0581 109.37 59.0621 109.126C59.0701 108.878 59.0741 108.688 59.0741 108.556L59.4461 108.718C59.0981 108.766 58.7561 108.812 58.4201 108.856C58.0841 108.9 57.7661 108.948 57.4661 109C57.1661 109.048 56.8961 109.106 56.6561 109.174C56.4801 109.23 56.3141 109.302 56.1581 109.39C56.0061 109.478 55.8821 109.592 55.7861 109.732C55.6941 109.868 55.6481 110.038 55.6481 110.242C55.6481 110.418 55.6921 110.586 55.7801 110.746C55.8721 110.906 56.0121 111.036 56.2001 111.136C56.3921 111.236 56.6421 111.286 56.9501 111.286ZM64.9061 112.18C64.2501 112.18 63.6921 112.034 63.2321 111.742C62.7761 111.446 62.4281 111.04 62.1881 110.524C61.9481 110.008 61.8241 109.42 61.8161 108.76C61.8241 108.084 61.9501 107.49 62.1941 106.978C62.4421 106.462 62.7961 106.06 63.2561 105.772C63.7161 105.484 64.2701 105.34 64.9181 105.34C65.6021 105.34 66.1901 105.508 66.6821 105.844C67.1781 106.18 67.5101 106.64 67.6781 107.224L66.6221 107.542C66.4861 107.166 66.2641 106.874 65.9561 106.666C65.6521 106.458 65.3021 106.354 64.9061 106.354C64.4621 106.354 64.0961 106.458 63.8081 106.666C63.5201 106.87 63.3061 107.154 63.1661 107.518C63.0261 107.878 62.9541 108.292 62.9501 108.76C62.9581 109.48 63.1241 110.062 63.4481 110.506C63.7761 110.946 64.2621 111.166 64.9061 111.166C65.3301 111.166 65.6821 111.07 65.9621 110.878C66.2421 110.682 66.4541 110.4 66.5981 110.032L67.6781 110.314C67.4541 110.918 67.1041 111.38 66.6281 111.7C66.1521 112.02 65.5781 112.18 64.9061 112.18ZM69.3767 112L69.3827 103.36H70.4627V108.64L73.1807 105.52H74.5667L71.7047 108.76L74.9027 112H73.4087L70.4627 108.88V112H69.3767Z" fill="white"/>
<g clip-path="url(#clip1_432_1098)">
<path fill-rule="evenodd" clip-rule="evenodd" d="M21.3099 24.4502L39.7362 24.4612C42.6354 24.4612 45.0115 26.7295 45 29.4837V46.9887C45 49.7429 42.6239 52.0002 39.7131 52.0002L21.2753 51.9892C18.3761 51.9782 16 49.7319 16 46.9667L16.0231 29.4617C16.0231 26.7075 18.3992 24.4393 21.3099 24.4502Z" fill="white"/>
<path fill-rule="evenodd" clip-rule="evenodd" d="M40.9266 37.0132H38.8244L37.9565 38.5823H39.43L40.9266 37.0132ZM42.316 39.5636H40.2732V43.7616C40.2732 45.0485 39.359 45.4091 38.6924 45.4091C38.0258 45.4091 37.3493 45.1833 37.3625 44.0657V39.562H35.3065L35.2949 44.3478C35.2949 46.1991 36.412 47.0221 37.9565 47.0221C39.0257 47.0331 39.8574 46.5816 40.321 45.8025H40.3441V46.8183H42.316V39.5605V39.5636Z" fill="#1D1D1B"/>
<path fill-rule="evenodd" clip-rule="evenodd" d="M33.7022 41.4819C33.7022 39.687 31.7188 39.3594 30.6133 39.3594C29.0094 39.3594 27.3577 39.687 27.1085 41.9098H29.0919C29.1513 41.4803 29.3411 40.894 30.3625 40.894C30.8855 40.894 31.7172 40.9395 31.7172 41.7405C31.7172 42.1465 31.3129 42.2703 30.9812 42.3158L29.1398 42.576C27.8329 42.7453 26.8594 43.4789 26.8594 44.9007C26.8594 46.4024 28.0705 47.0232 29.2355 47.0232C30.638 47.0232 31.303 46.4134 31.7535 45.9729C31.8013 46.368 31.836 46.4699 31.9548 46.8194L33.7138 46.8084C33.7138 46.0074 33.7022 45.4196 33.7022 45.4086V41.4803V41.4819ZM31.7188 44.2235V43.2861C31.5043 43.4335 31.1611 43.5573 30.3163 43.6702C29.544 43.794 28.9137 43.9868 28.9137 44.7769C28.9137 45.4321 29.4846 45.6453 29.8757 45.6453C30.7783 45.6453 31.7172 45.1029 31.7172 44.2235H31.7188Z" fill="#1D1D1B"/>
<path fill-rule="evenodd" clip-rule="evenodd" d="M24.9696 37.0133H22.9268V39.5527H21.8691V40.9181H22.9153V45.3308C22.9153 46.2682 23.2354 46.9109 25.0059 46.9109H25.2798C25.5999 46.9109 25.9333 46.8889 26.2418 46.8764V45.4201C26.0999 45.4311 25.9448 45.4546 25.8145 45.4546C24.9828 45.4546 24.9597 45.2963 24.9597 44.8558L24.9713 40.9165H26.255V39.5512H24.9713V37.0117L24.9696 37.0133Z" fill="#1D1D1B"/>
<path fill-rule="evenodd" clip-rule="evenodd" d="M20.9189 37.0005H18.7095L18.6963 46.8087H20.9074L20.9189 37.0005Z" fill="#1D1D1B"/>
</g>
<path d="M236.652 162.034C236.612 165.099 239.337 166.808 241.389 167.824C243.498 168.867 244.205 169.535 244.197 170.469C244.181 171.899 242.514 172.527 240.957 172.553C238.238 172.596 236.654 171.805 235.398 171.209L234.419 175.872C235.681 176.462 238.015 176.979 240.439 177C246.123 177 249.845 174.147 249.863 169.722C249.884 164.107 242.224 163.795 242.276 161.286C242.294 160.525 243.009 159.713 244.574 159.505C245.348 159.402 247.487 159.322 249.91 160.455L250.863 155.945C249.56 155.463 247.885 155 245.796 155C240.444 155 236.68 157.893 236.649 162.034M260.007 155.389C258.968 155.389 258.094 156.003 257.704 156.951L249.583 176.67H255.265L256.396 173.493H263.339L263.996 176.67H269.003L264.629 155.389H260.005M260.8 161.137L262.441 169.128H257.95L260.8 161.137ZM229.763 155.389L225.285 176.667H230.7L235.173 155.389H229.761M221.752 155.389L216.117 169.873L213.838 157.557C213.571 156.182 212.513 155.389 211.341 155.389H202.128L202 156.006C203.892 156.424 206.041 157.097 207.342 157.816C208.137 158.255 208.365 158.64 208.627 159.686L212.945 176.667H218.666L227.439 155.389H221.755" fill="#939392"/>
</g>
<defs>
<clipPath id="clip0_432_1098">
<rect width="287" height="194" rx="10" fill="white"/>
</clipPath>
<clipPath id="clip1_432_1098">
<rect width="68" height="28" fill="white" transform="translate(16 24)"/>
</clipPath>
</defs>
</svg>
