<svg width="28" height="22" viewBox="0 0 28 22" fill="none" xmlns="http://www.w3.org/2000/svg">
<path d="M24.5 0.5C26.1406 0.5 27.5 1.85938 27.5 3.5V5H0.5V3.5C0.5 1.85938 1.8125 0.5 3.5 0.5H24.5ZM27.5 18.5C27.5 20.1875 26.1406 21.5 24.5 21.5H3.5C1.8125 21.5 0.5 20.1875 0.5 18.5V9.5H27.5V18.5ZM5.75 15.5C5.32812 15.5 5 15.875 5 16.25C5 16.6719 5.32812 17 5.75 17H8.75C9.125 17 9.5 16.6719 9.5 16.25C9.5 15.875 9.125 15.5 8.75 15.5H5.75ZM11.75 17H17.75C18.125 17 18.5 16.6719 18.5 16.25C18.5 15.875 18.125 15.5 17.75 15.5H11.75C11.3281 15.5 11 15.875 11 16.25C11 16.6719 11.3281 17 11.75 17Z" fill="#A4A4A4"/>
</svg>
