<svg width="24" height="19" viewBox="0 0 24 19" fill="none" xmlns="http://www.w3.org/2000/svg">
<path d="M3.25 0.75H20.75C22.1172 0.75 23.25 1.88281 23.25 3.25V4.5H0.75V3.25C0.75 1.88281 1.84375 0.75 3.25 0.75ZM23.25 8.25V15.75C23.25 17.1562 22.1172 18.25 20.75 18.25H3.25C1.84375 18.25 0.75 17.1562 0.75 15.75V8.25H23.25ZM5.125 13.25C4.77344 13.25 4.5 13.5625 4.5 13.875C4.5 14.2266 4.77344 14.5 5.125 14.5H7.625C7.9375 14.5 8.25 14.2266 8.25 13.875C8.25 13.5625 7.9375 13.25 7.625 13.25H5.125ZM9.5 13.875C9.5 14.2266 9.77344 14.5 10.125 14.5H15.125C15.4375 14.5 15.75 14.2266 15.75 13.875C15.75 13.5625 15.4375 13.25 15.125 13.25H10.125C9.77344 13.25 9.5 13.5625 9.5 13.875Z" fill="#81807F"/>
</svg>
