<svg width="24" height="22" viewBox="0 0 24 22" fill="none" xmlns="http://www.w3.org/2000/svg">
<path d="M3 17.75C3 18.1719 3.32812 18.5 3.75 18.5H22.5C23.2969 18.5 24 19.2031 24 20C24 20.8438 23.2969 21.5 22.5 21.5H3.75C1.64062 21.5 0 19.8594 0 17.75V2C0 1.20312 0.65625 0.5 1.5 0.5C2.29688 0.5 3 1.20312 3 2V17.75ZM16.0312 12.0781C15.4688 12.6875 14.4844 12.6875 13.9219 12.0781L11.25 9.40625L7.03125 13.5781C6.46875 14.1875 5.48438 14.1875 4.92188 13.5781C4.3125 13.0156 4.3125 12.0312 4.92188 11.4688L10.1719 6.21875C10.7344 5.60938 11.7188 5.60938 12.2812 6.21875L15 8.89062L19.9219 3.96875C20.4844 3.35938 21.4688 3.35938 22.0312 3.96875C22.6406 4.53125 22.6406 5.51562 22.0312 6.07812L16.0312 12.0781Z" fill="#A4A4A4"/>
</svg>
