<svg width="26" height="24" viewBox="0 0 26 24" fill="none" xmlns="http://www.w3.org/2000/svg">
<path d="M4.875 4.125C4.875 2.34766 6.29688 0.875 8.125 0.875H22.75C24.5273 0.875 26 2.34766 26 4.125V20.375C26 22.2031 24.5273 23.625 22.75 23.625H4.0625C1.77734 23.625 0 21.8477 0 19.5625V5.75C0 4.88672 0.710938 4.125 1.625 4.125C2.48828 4.125 3.25 4.88672 3.25 5.75V19.5625C3.25 20.0195 3.60547 20.375 4.0625 20.375C4.46875 20.375 4.875 20.0195 4.875 19.5625V4.125ZM8.125 5.34375V9.40625C8.125 10.1172 8.63281 10.625 9.34375 10.625H15.0312C15.6914 10.625 16.25 10.1172 16.25 9.40625V5.34375C16.25 4.68359 15.6914 4.125 15.0312 4.125H9.34375C8.63281 4.125 8.125 4.68359 8.125 5.34375ZM18.6875 4.9375C18.6875 5.39453 19.043 5.75 19.5 5.75H21.9375C22.3438 5.75 22.75 5.39453 22.75 4.9375C22.75 4.53125 22.3438 4.125 21.9375 4.125H19.5C19.043 4.125 18.6875 4.53125 18.6875 4.9375ZM18.6875 9.8125C18.6875 10.2695 19.043 10.625 19.5 10.625H21.9375C22.3438 10.625 22.75 10.2695 22.75 9.8125C22.75 9.40625 22.3438 9 21.9375 9H19.5C19.043 9 18.6875 9.40625 18.6875 9.8125ZM8.125 14.6875C8.125 15.1445 8.48047 15.5 8.9375 15.5H21.9375C22.3438 15.5 22.75 15.1445 22.75 14.6875C22.75 14.2812 22.3438 13.875 21.9375 13.875H8.9375C8.48047 13.875 8.125 14.2812 8.125 14.6875ZM8.125 19.5625C8.125 20.0195 8.48047 20.375 8.9375 20.375H21.9375C22.3438 20.375 22.75 20.0195 22.75 19.5625C22.75 19.1562 22.3438 18.75 21.9375 18.75H8.9375C8.48047 18.75 8.125 19.1562 8.125 19.5625Z" fill="#6AB023"/>
</svg>
