<svg width="258" height="48" viewBox="0 0 258 48" fill="none" xmlns="http://www.w3.org/2000/svg">
<g clip-path="url(#clip0_242_1543)">
<path d="M91.557 9.07937C91.557 7.02772 91.9116 5.40355 92.6214 4.20621C93.3313 3.00952 94.2432 2.1031 95.3585 1.48761C96.4738 0.872116 97.7233 0.470362 99.1091 0.282349C100.494 0.094996 101.846 0 103.163 0H107.218V7.02706H104.329C103.416 7.02706 102.698 7.11282 102.175 7.28368C101.651 7.4552 101.262 7.6861 101.009 7.97636C100.756 8.26729 100.595 8.60043 100.527 8.97646C100.46 9.35314 100.426 9.74566 100.426 10.156H118.52V35.8036H109.651V17.0808H100.426V35.8036H91.557V17.0808H88.3135V10.156H91.557V9.07871V9.07937ZM109.651 7.33514V0H118.521V7.33514H109.651Z" fill="#406A15"/>
<path d="M121.865 35.8037V10.1561H129.772L130.735 13.1828C131.681 11.9861 132.736 11.0975 133.903 10.5157C135.068 9.93448 136.513 9.64355 138.236 9.64355C139.757 9.64355 141.024 9.9259 142.037 10.4899C143.051 11.054 143.862 11.7981 144.47 12.721C145.078 13.6446 145.509 14.7047 145.763 15.9014C146.016 17.0988 146.143 18.3297 146.143 19.5944V35.8037H137.273V20.2613C137.273 18.8252 136.986 17.8508 136.412 17.3376C135.837 16.8243 135.161 16.5684 134.384 16.5684C133.066 16.5684 131.85 17.3725 130.735 18.9789V35.8037H121.866H121.865Z" fill="#406A15"/>
<path d="M148.474 27.6476C148.474 26.2801 148.744 25.092 149.285 24.0826C149.825 23.0746 150.535 22.219 151.414 21.5177C152.292 20.8171 153.289 20.2953 154.404 19.9529C155.52 19.6112 156.668 19.4318 157.851 19.4146C159.033 19.3975 160.19 19.5518 161.322 19.8764C162.454 20.2016 163.459 20.6892 164.338 21.3383V20.8765C164.338 19.3724 163.839 18.278 162.842 17.5939C161.845 16.9104 160.663 16.5344 159.295 16.4651C157.926 16.3972 156.549 16.5931 155.164 17.0549C153.778 17.5167 152.697 18.1579 151.92 18.9786L148.626 12.0023C150.078 11.2503 151.709 10.6684 153.517 10.2581C155.324 9.84774 157.157 9.64258 159.016 9.64258C160.874 9.64258 162.555 9.86555 164.261 10.3095C165.967 10.7542 167.48 11.4554 168.798 12.4126C170.116 13.3705 171.18 14.6101 171.991 16.1313C172.802 17.6532 173.207 19.509 173.207 21.6965V35.8027H166.77L165.199 33.443C164.32 34.4009 163.249 35.1186 161.981 35.5976C160.714 36.0765 159.405 36.316 158.053 36.316C156.87 36.316 155.705 36.1366 154.556 35.7777C153.407 35.4188 152.385 34.8798 151.49 34.1621C150.595 33.4443 149.868 32.5386 149.311 31.4435C148.754 30.3497 148.475 29.0838 148.475 27.6476H148.474ZM160.74 29.3404C161.618 29.3404 162.344 29.1095 162.919 28.6477C163.493 28.1859 163.78 27.6654 163.78 27.0829C163.78 26.5697 163.484 26.0914 162.893 25.6468C162.302 25.2028 161.584 24.9798 160.739 24.9798C159.691 24.9798 158.871 25.2028 158.281 25.6468C157.69 26.0914 157.394 26.6046 157.394 27.1858C157.394 27.7334 157.698 28.2295 158.306 28.6734C158.914 29.1181 159.725 29.3404 160.739 29.3404H160.74Z" fill="#406A15"/>
<path d="M176.553 35.8037V10.1561H184.459L185.422 13.1828C186.368 11.9861 187.424 11.0975 188.59 10.5157C189.756 9.93448 191.2 9.64355 192.923 9.64355C194.444 9.64355 195.711 9.9259 196.725 10.4899C197.739 11.054 198.549 11.7981 199.158 12.721C199.766 13.6446 200.197 14.7047 200.45 15.9014C200.704 17.0988 200.83 18.3297 200.83 19.5944V35.8037H191.961V20.2613C191.961 18.8252 191.673 17.8508 191.099 17.3376C190.524 16.8243 189.849 16.5684 189.072 16.5684C187.754 16.5684 186.537 17.3725 185.423 18.9789V35.8037H176.553H176.553Z" fill="#406A15"/>
<path d="M257.696 29.4428C256.716 31.5637 255.179 33.2387 253.084 34.4697C250.988 35.7007 248.353 36.3162 245.177 36.3162C242.879 36.3162 240.86 35.9824 239.12 35.3161C237.38 34.6491 235.936 33.7262 234.787 32.546C233.638 31.3665 232.776 29.9554 232.203 28.3141C231.628 26.6728 231.341 24.8949 231.341 22.9791C231.341 21.0634 231.628 19.2862 232.203 17.6442C232.777 16.0029 233.639 14.5924 234.787 13.4122C235.936 12.2327 237.38 11.3091 239.12 10.6422C240.86 9.97524 242.879 9.64209 245.177 9.64209C247.476 9.64209 249.434 9.97524 251.057 10.6422C252.679 11.3091 254.004 12.232 255.036 13.4122C256.066 14.5918 256.818 16.0029 257.291 17.6442C257.763 19.2855 258 21.064 258 22.9791V25.0308H239.551C239.821 26.331 240.395 27.3826 241.275 28.1854C242.153 28.9896 243.454 29.3907 245.177 29.3907C246.562 29.3907 247.669 29.1262 248.497 28.5958C249.325 28.066 249.941 27.3569 250.347 26.4669L257.696 29.4421V29.4428ZM249.891 19.2354C249.891 18.4147 249.477 17.7656 248.649 17.286C247.82 16.8077 246.832 16.5676 245.684 16.5676C244.399 16.5676 243.31 16.807 242.415 17.286C241.519 17.7649 240.818 18.4147 240.311 19.2354H249.891Z" fill="#406A15"/>
<path d="M223.193 27.6426C223.094 27.6993 222.991 27.7534 222.885 27.8035C222.881 27.8055 222.876 27.8068 222.872 27.8101C222.833 27.8279 222.795 27.8464 222.754 27.8636C222.743 27.8688 222.73 27.8741 222.719 27.8807C222.379 28.0298 222.01 28.1532 221.631 28.2541C221.152 28.3827 220.656 28.4791 220.184 28.547H220.182C219.204 28.6908 218.321 28.7238 217.882 28.7238C216.981 28.7238 214.216 28.5846 212.57 27.6439C211.826 27.2184 211.398 26.3852 211.457 25.5223C211.838 19.9545 213.801 17.1237 215.712 15.9587C215.952 15.8116 216.19 15.6929 216.424 15.5972C216.855 15.4217 217.274 15.3261 217.658 15.299C217.734 15.2938 217.809 15.2918 217.881 15.2918C217.963 15.2918 218.046 15.2951 218.132 15.3017C217.943 15.2443 217.782 15.2067 217.636 15.1849C217.345 15.1387 217.108 15.1486 216.811 15.1592C216.523 15.1697 216.267 14.9751 216.195 14.6934L215.583 12.2664C215.535 12.081 215.674 11.9016 215.863 11.9016H217.46C217.486 11.9016 217.508 11.9069 217.529 11.9155C217.65 11.9663 217.675 12.1496 217.544 12.2242C217.089 12.4861 216.567 12.8423 216.698 13.0442C216.842 13.2685 218.405 13.2421 219.487 13.1953C219.877 13.1781 220.055 12.6939 219.77 12.4241L219.639 12.2987C219.502 12.1688 219.605 11.9379 219.791 11.9564L221.493 12.118C221.751 12.1424 221.908 12.4168 221.801 12.655L220.667 15.1915C220.44 15.6981 220.571 16.2886 220.977 16.6626C221.656 17.2867 222.306 18.1535 222.853 19.3067L229.985 16.4363C229.004 14.3167 227.382 12.6405 225.119 11.4095C222.855 10.1785 220.135 9.56299 216.959 9.56299C214.661 9.56299 212.643 9.89613 210.902 10.5631C209.162 11.23 207.717 12.1529 206.569 13.3331C205.42 14.5127 204.558 15.9238 203.984 17.5651C203.409 19.2064 203.123 20.9849 203.123 22.9C203.123 24.8151 203.409 26.593 203.984 28.2343C204.559 29.8756 205.42 31.2861 206.569 32.4662C207.717 33.6458 209.162 34.5694 210.902 35.2363C212.642 35.9033 214.661 36.2364 216.959 36.2364C220.135 36.2364 222.77 35.6209 224.866 34.3899C226.961 33.1589 228.498 31.484 229.478 29.363L223.268 27.597C223.243 27.6129 223.219 27.6294 223.192 27.6439L223.193 27.6426Z" fill="#406A15"/>
<path d="M220.229 22.6611C220.001 22.4012 219.726 22.2119 219.408 22.0918C219.265 22.0377 219.103 21.983 218.923 21.9302C218.768 21.8834 218.599 21.8365 218.417 21.7897V20.1642C218.475 20.1715 218.534 20.1813 218.592 20.1919C219.002 20.2684 219.41 20.4228 219.822 20.6576L220.29 19.4893C219.99 19.3 219.64 19.1542 219.239 19.052C218.97 18.984 218.695 18.9411 218.417 18.9187V17.8335H217.266V18.9556C216.976 19.0005 216.716 19.0737 216.486 19.176C216.069 19.3587 215.758 19.6081 215.551 19.9208C215.345 20.2348 215.242 20.5844 215.242 20.9697C215.242 21.4137 215.355 21.7679 215.585 22.0338C215.813 22.2996 216.086 22.4936 216.406 22.6136C216.643 22.702 216.929 22.7911 217.266 22.8808V24.501C217.053 24.4694 216.842 24.4199 216.631 24.3513C216.243 24.2246 215.909 24.0564 215.627 23.8479L215.111 25.0063C215.405 25.2339 215.794 25.4193 216.279 25.5618C216.601 25.6568 216.929 25.7182 217.266 25.7505V26.8423H218.417V25.738C218.752 25.6951 219.051 25.6152 219.314 25.5005C219.407 25.4589 219.496 25.4154 219.577 25.3672C219.867 25.2023 220.093 24.9991 220.257 24.7543C220.466 24.4417 220.571 24.0947 220.571 23.7153C220.571 23.2727 220.457 22.9204 220.228 22.6611H220.229ZM217.266 21.4704C217.207 21.448 217.152 21.4255 217.105 21.4031C216.87 21.2916 216.753 21.1221 216.753 20.8945C216.753 20.6669 216.854 20.4828 217.058 20.3436C217.117 20.3034 217.187 20.2691 217.266 20.2407V21.4704ZM218.751 24.3473C218.662 24.4034 218.549 24.4463 218.417 24.4779V23.1863C218.604 23.2489 218.758 23.332 218.878 23.435C219 23.5392 219.061 23.6698 219.061 23.8288C219.061 24.0439 218.957 24.2174 218.751 24.3473H218.751Z" fill="#406A15"/>
<g opacity="0.3">
<path opacity="0.6" d="M217.151 28.2525C215.119 27.9187 213.703 26.0445 213.914 23.9711C214.504 18.1619 217.082 15.7197 218.132 15.2994C218.048 15.2928 217.964 15.2896 217.882 15.2896C217.438 15.2896 216.942 15.3845 216.425 15.595C216.191 15.6906 215.952 15.81 215.712 15.9565C213.801 17.1215 211.838 19.9523 211.457 25.5201C211.398 26.383 211.826 27.2162 212.57 27.6417C214.216 28.5824 216.981 28.7216 217.882 28.7216C218.534 28.7216 220.159 28.649 221.631 28.2525C220.261 28.5705 218.598 28.4907 217.151 28.2525H217.151Z" fill="#406A15"/>
<path opacity="0.6" d="M216.263 13.2168C215.98 12.4925 216.689 12.0135 217.53 11.9133C217.511 11.9047 217.487 11.8994 217.462 11.8994H215.864C215.675 11.8994 215.537 12.0795 215.585 12.2642L216.197 14.6912C216.268 14.9729 216.525 15.1675 216.813 15.157C217.259 15.1412 217.569 15.1273 218.133 15.2995C216.213 14.6622 216.546 13.9412 216.263 13.2162L216.263 13.2168Z" fill="#406A15"/>
</g>
<g style="mix-blend-mode:soft-light" opacity="0.35">
<path d="M220.183 28.5457C215.931 29.4383 210.402 28.1321 210.297 26.3232C210.297 19.9928 213.433 16.4819 215.585 15.1704C215.585 15.1704 215.658 13.4684 215.585 12.2651L216.197 14.6922C216.268 14.9738 216.524 15.1685 216.813 15.1579C217.109 15.1473 217.346 15.1374 217.638 15.1836L217.66 15.2984C217.275 15.3248 216.857 15.4211 216.426 15.5966C216.191 15.6922 215.953 15.8117 215.713 15.9581C213.802 17.1231 211.838 19.9539 211.458 25.5217C211.399 26.3846 211.827 27.2178 212.571 27.6433C214.217 28.584 216.982 28.7232 217.883 28.7232C218.322 28.7232 219.204 28.6902 220.183 28.5464L220.183 28.5457Z" fill="#406A15"/>
</g>
<path d="M76.0654 0.290345V17.6924C76.0654 18.8264 75.8542 19.911 75.4358 20.9183C75.0173 21.9283 74.4313 22.8176 73.696 23.5617C72.9588 24.3072 72.0893 24.9009 71.1096 25.3257C70.1409 25.7446 69.0843 25.9584 67.9677 25.9584C66.8511 25.9584 65.775 25.7433 64.7803 25.3211C63.781 24.8969 62.9024 24.3045 62.1684 23.5604C61.4338 22.8182 60.8491 21.929 60.43 20.917C60.0656 20.0376 59.8668 19.0962 59.8205 18.1159V17.6449C59.8205 17.3606 59.814 17.0789 59.8009 16.7992C59.7071 14.6921 59.2619 12.6906 58.4719 10.8382C57.5815 8.75356 56.3286 6.89916 54.7479 5.32381C53.5473 4.12779 52.1895 3.12043 50.702 2.30901C50.2399 2.05635 49.7673 1.82084 49.2804 1.60775C47.2069 0.701994 44.9444 0.242847 42.5554 0.242847C39.7552 0.242847 37.1172 0.88473 34.7152 2.15134C32.8666 3.12769 31.2442 4.38705 29.8754 5.9083C28.5098 4.38837 26.9011 3.13033 25.0733 2.15398C22.6935 0.885389 20.0425 0.242188 17.1933 0.242188C14.8526 0.242188 12.6038 0.700675 10.5088 1.60446C8.42426 2.50494 6.58089 3.75902 5.02757 5.33107C3.47361 6.90378 2.23513 8.75686 1.34733 10.8375C0.453674 12.934 0 15.2245 0 17.6456V35.1182H9.09761V17.6456C9.09761 16.5162 9.30815 15.4468 9.72336 14.4659C10.1425 13.4743 10.7298 12.5943 11.4664 11.8482C12.2036 11.1014 13.0744 10.5077 14.0535 10.0835C15.0208 9.66328 16.0781 9.45086 17.1947 9.45086C18.3112 9.45086 19.3861 9.6646 20.3808 10.0881C21.3788 10.5116 22.2574 11.1047 22.9927 11.8475C23.7306 12.595 24.3172 13.4763 24.7363 14.4652C25.1516 15.4468 25.3621 16.5162 25.3621 17.6456V35.1182H34.4597V17.6456C34.4597 16.5162 34.6702 15.4468 35.0855 14.4659C35.5052 13.4743 36.0919 12.5943 36.8285 11.8482C37.5657 11.1014 38.4359 10.5077 39.4156 10.0835C40.3835 9.66328 41.4395 9.45086 42.5568 9.45086C43.674 9.45086 44.7489 9.6646 45.7422 10.0881C46.7409 10.5116 47.6195 11.1047 48.3548 11.8475C49.092 12.595 49.6793 13.4757 50.0984 14.4652C50.4589 15.3169 50.6558 16.2411 50.7033 17.2075V17.6924C50.7033 17.9814 50.7099 18.2683 50.7235 18.5533C50.8207 20.6162 51.2646 22.5979 52.0487 24.4569C52.9372 26.5666 54.1887 28.4454 55.7668 30.0412C56.9648 31.2537 58.3252 32.2743 59.8211 33.089C60.2957 33.3476 60.7826 33.5871 61.2832 33.8035C63.3749 34.7079 65.6244 35.1657 67.9684 35.1657C69.903 35.1657 71.7777 34.8511 73.5409 34.231C74.2468 33.9822 74.9299 33.6893 75.5883 33.3555C75.5401 33.4881 75.4899 33.6201 75.4358 33.7514C75.0173 34.7594 74.4313 35.65 73.6973 36.3947C72.9575 37.1415 72.088 37.7352 71.1102 38.1588C70.1409 38.579 69.0843 38.7921 67.9684 38.7921H63.3841V48.0001H67.9684C70.3593 48.0001 72.6212 47.5409 74.6933 46.6345C76.7525 45.734 78.5854 44.4668 80.1426 42.8663C81.6907 41.2732 82.9259 39.4115 83.8137 37.3328C84.7087 35.235 85.163 32.9445 85.163 30.5268V0.290345H76.0648H76.0654Z" fill="url(#paint0_linear_242_1543)"/>
<g clip-path="url(#clip1_242_1543)">
<path style="mix-blend-mode:darken" opacity="0.7" d="M44.4263 0.333496C48.3385 0.732785 50.7126 2.32994 50.7126 2.32994V17.2515C50.7126 17.2515 50.7126 11.3583 44.4263 9.64285V0.333496Z" fill="url(#paint1_linear_242_1543)" fill-opacity="0.27"/>
</g>
</g>
<defs>
<linearGradient id="paint0_linear_242_1543" x1="-2.47137e-10" y1="24.1211" x2="96.1675" y2="24.0028" gradientUnits="userSpaceOnUse">
<stop stop-color="#70AD29"/>
<stop offset="1" stop-color="#406A15"/>
</linearGradient>
<linearGradient id="paint1_linear_242_1543" x1="44.4263" y1="8.79251" x2="50.7126" y2="8.79251" gradientUnits="userSpaceOnUse">
<stop stop-color="#1D1D1B" stop-opacity="0"/>
<stop offset="0.91" stop-color="#1D1D1B"/>
<stop offset="1" stop-color="#1D1D1B"/>
</linearGradient>
<clipPath id="clip0_242_1543">
<rect width="258" height="48" fill="white"/>
</clipPath>
<clipPath id="clip1_242_1543">
<rect width="6.61539" height="16.918" fill="white" transform="translate(44.0972 0.333496)"/>
</clipPath>
</defs>
</svg>
