<svg width="26" height="27" viewBox="0 0 26 27" fill="none" xmlns="http://www.w3.org/2000/svg">
<path d="M26 4.3125C26 5.22656 25.2383 6.08984 24.0195 6.75C22.5469 7.61328 20.3633 8.17188 17.8242 8.32422C17.6211 8.27344 17.418 8.17188 17.2656 8.07031C15.2344 7.25781 12.5938 6.75 9.75 6.75C9.29297 6.75 8.88672 6.80078 8.48047 6.80078L8.42969 6.75C7.21094 6.08984 6.5 5.22656 6.5 4.3125C6.5 2.07812 10.8672 0.25 16.25 0.25C21.6328 0.25 26 2.07812 26 4.3125ZM8.125 8.47656C8.63281 8.42578 9.19141 8.375 9.75 8.375C12.8984 8.375 15.6914 9.03516 17.4688 10C18.7383 10.6602 19.5 11.5234 19.5 12.4375C19.5 12.6406 19.4492 12.8438 19.3477 13.0469C19.1445 13.707 18.4844 14.3164 17.5703 14.875H17.5195C15.7422 15.8906 12.8984 16.5 9.75 16.5C6.70312 16.5 4.01172 15.9414 2.18359 15.0273C2.08203 14.9766 2.03125 14.9258 1.92969 14.875C0.710938 14.2148 0 13.3516 0 12.4375C0 10.7109 2.69141 9.1875 6.5 8.62891C7.00781 8.57812 7.56641 8.47656 8.125 8.47656ZM21.125 12.4375C21.125 11.3711 20.5664 10.457 19.8555 9.74609C21.3281 9.54297 22.6484 9.1875 23.7656 8.73047C24.5781 8.375 25.3398 7.91797 26 7.41016V9.1875C26 10.2031 25.1367 11.1172 23.7656 11.7773C23.0039 12.1836 22.0898 12.4883 21.0742 12.7422C21.0742 12.6406 21.125 12.5391 21.125 12.4883V12.4375ZM19.5 17.3125C19.5 18.2266 18.7383 19.0898 17.5195 19.75C17.418 19.8008 17.3672 19.8516 17.2656 19.9023C15.4375 20.8164 12.7461 21.375 9.75 21.375C6.55078 21.375 3.70703 20.7656 1.92969 19.75C0.710938 19.0898 0 18.2266 0 17.3125V15.5352C0.609375 16.043 1.37109 16.5 2.18359 16.8555C4.21484 17.668 6.85547 18.125 9.75 18.125C12.5938 18.125 15.2344 17.668 17.2656 16.8555C17.6211 16.6523 18.0273 16.5 18.3828 16.2969C18.6875 16.0938 18.9922 15.8906 19.2461 15.6875C19.3477 15.6367 19.3984 15.5859 19.5 15.5352V15.6875V15.9922V17.3125ZM21.125 17.3125V15.6875V14.418C22.0898 14.1641 22.9531 13.9102 23.7656 13.6055C24.5781 13.25 25.3398 12.793 26 12.2852V14.0625C26 14.6211 25.7461 15.1289 25.2383 15.6367C24.375 16.5 22.9531 17.1602 21.0742 17.6172C21.0742 17.5156 21.125 17.4141 21.125 17.3125ZM9.75 23C12.5938 23 15.2344 22.543 17.2656 21.7305C18.0781 21.375 18.8398 20.918 19.5 20.4102V22.1875C19.5 24.4727 15.1328 26.25 9.75 26.25C4.36719 26.25 0 24.4727 0 22.1875V20.4102C0.609375 20.918 1.37109 21.375 2.18359 21.7305C4.21484 22.543 6.85547 23 9.75 23Z" fill="#6AB023"/>
</svg>
