<svg width="19" height="17" viewBox="0 0 19 17" fill="none" xmlns="http://www.w3.org/2000/svg">
<path d="M3.375 16.125C1.47656 16.125 0 14.6133 0 12.75V3.75C0 1.88672 1.47656 0.375 3.375 0.375H5.625C6.22266 0.375 6.75 0.902344 6.75 1.5C6.75 2.13281 6.22266 2.625 5.625 2.625H3.375C2.74219 2.625 2.25 3.15234 2.25 3.75V12.75C2.25 13.3828 2.74219 13.875 3.375 13.875H5.625C6.22266 13.875 6.75 14.4023 6.75 15C6.75 15.6328 6.22266 16.125 5.625 16.125H3.375ZM17.7188 7.65234C18.0703 7.96875 18.0703 8.56641 17.7188 8.84766L12.6562 13.6289C12.4102 13.875 12.0586 13.9102 11.7422 13.8047C11.4258 13.6641 11.25 13.3477 11.25 13.0312V10.5H6.75C6.11719 10.5 5.625 10.0078 5.625 9.375V7.125C5.625 6.52734 6.11719 6 6.75 6H11.25V3.46875C11.25 3.15234 11.4258 2.83594 11.7422 2.69531C12.0586 2.58984 12.4102 2.625 12.6562 2.87109L17.7188 7.65234Z" fill="#548C1C"/>
</svg>
