<svg width="28" height="31" viewBox="0 0 28 31" fill="none" xmlns="http://www.w3.org/2000/svg">
<path d="M15.875 2.625V3.79688C20.1523 4.67578 23.375 8.42578 23.375 12.9375V14.0508C23.375 16.8047 24.3711 19.5 26.1875 21.5508L26.5977 22.0195C27.125 22.6055 27.2422 23.3672 26.9492 24.0703C26.6562 24.7148 25.9531 25.125 25.25 25.125H2.75C1.98828 25.125 1.28516 24.7148 0.992188 24.0703C0.699219 23.3672 0.816406 22.6055 1.34375 22.0195L1.75391 21.5508C3.57031 19.5 4.625 16.8047 4.625 14.0508V12.9375C4.625 8.42578 7.78906 4.67578 12.125 3.79688V2.625C12.125 1.62891 12.9453 0.75 14 0.75C14.9961 0.75 15.875 1.62891 15.875 2.625ZM14 30.75C13.0039 30.75 12.0078 30.3984 11.3047 29.6953C10.6016 28.9922 10.25 27.9961 10.25 27H17.75C17.75 27.9961 17.3398 28.9922 16.6367 29.6953C15.9336 30.3984 14.9375 30.75 14 30.75Z" fill="#6AB023"/>
</svg>
